<svg xmlns="http://www.w3.org/2000/svg" width="1050" height="1050" viewBox="0 0 1050 1050"><g transform="translate(-17 -15)"><rect width="1050" height="1050" transform="translate(17 15)" fill="none"/><g transform="translate(0 -1.999)"><path d="M882,350H182a355.623,355.623,0,0,1,1.807-35.785A349.476,349.476,0,0,1,496.215,1.807a355.246,355.246,0,0,1,71.571,0A349.477,349.477,0,0,1,880.193,314.215,355.636,355.636,0,0,1,882,350Z" transform="translate(-165 191.999)" fill="#fbbc04"/><path d="M765,944a355.622,355.622,0,0,1-35.785-1.807A349.477,349.477,0,0,1,416.807,629.785,355.642,355.642,0,0,1,415,594h700a355.618,355.618,0,0,1-1.807,35.785A349.476,349.476,0,0,1,800.785,942.193,355.623,355.623,0,0,1,765,944Z" transform="translate(-48 -52)" fill="#4285f4"/><circle cx="175" cy="175" r="175" transform="translate(717 192)" fill="#ea4335"/><path d="M0,0H350a0,0,0,0,1,0,0V175A175,175,0,0,1,175,350h0A175,175,0,0,1,0,175V0A0,0,0,0,1,0,0Z" transform="translate(17 542)" fill="#34a853"/><circle cx="50" cy="50" r="50" transform="translate(797 272)" fill="#fff"/></g></g></svg>